<svg width="61" height="85" viewBox="0 0 61 85" fill="none" xmlns="http://www.w3.org/2000/svg">
<path d="M0.305176 56.9886C0.305176 56.4119 0.628264 55.8846 1.13974 55.6267L29.8248 41.1608C30.2498 40.9464 30.7501 40.9464 31.1751 41.1608L59.8602 55.6267C60.3717 55.8846 60.6948 56.4119 60.6948 56.9886V67.0234C60.6948 67.5894 60.1042 67.9575 59.6023 67.7044L31.1751 53.3685C30.7501 53.1542 30.2498 53.1542 29.8248 53.3685L1.39763 67.7044C0.895719 67.9575 0.305176 67.5894 0.305176 67.0234V56.9886Z" fill="#2C3039"/>
<path d="M0.305176 73.5957C0.305176 73.019 0.628264 72.4917 1.13974 72.2338L29.8248 57.7679C30.2498 57.5535 30.7501 57.5535 31.1751 57.7679L59.8602 72.2338C60.3717 72.4917 60.6948 73.019 60.6948 73.5957V83.6305C60.6948 84.1965 60.1042 84.5646 59.6023 84.3115L31.1751 69.9757C30.7501 69.7613 30.2498 69.7613 29.8248 69.9757L1.39763 84.3115C0.895719 84.5646 0.305176 84.1965 0.305176 83.6305V73.5957Z" fill="#2C3039"/>
<path d="M28.5979 1.8541C29.1966 0.0114822 31.8034 0.0114799 32.4021 1.8541L35.4393 11.2016C35.7071 12.0257 36.475 12.5836 37.3414 12.5836H47.17C49.1074 12.5836 49.913 15.0628 48.3456 16.2016L40.3941 21.9787C39.6931 22.488 39.3998 23.3907 39.6675 24.2148L42.7047 33.5623C43.3034 35.4049 41.1945 36.9372 39.627 35.7984L31.6756 30.0213C30.9746 29.512 30.0254 29.512 29.3244 30.0213L21.373 35.7984C19.8055 36.9372 17.6966 35.4049 18.2953 33.5623L21.3325 24.2148C21.6002 23.3907 21.3069 22.488 20.6059 21.9787L12.6544 16.2016C11.087 15.0628 11.8926 12.5836 13.83 12.5836H23.6586C24.525 12.5836 25.2929 12.0257 25.5607 11.2016L28.5979 1.8541Z" fill="#2C3039"/>
</svg>
