<svg width="81" height="100" viewBox="0 0 81 100" fill="none" xmlns="http://www.w3.org/2000/svg">
<path d="M0.5 36.1806C0.5 35.4166 0.928005 34.7181 1.60557 34.3764L39.6056 15.213C40.1686 14.929 40.8314 14.929 41.3944 15.213L79.3944 34.3764C80.072 34.7181 80.5 35.4166 80.5 36.1806V53.474C80.5 54.2238 79.7177 54.7114 79.0528 54.3761L41.3944 35.385C40.8314 35.101 40.1686 35.101 39.6056 35.385L1.94721 54.3761C1.28231 54.7114 0.5 54.2238 0.5 53.474V36.1806Z" fill="#2C3039"/>
<path d="M0.5 66.4388C0.5 65.6748 0.928005 64.9763 1.60557 64.6346L39.6056 45.4712C40.1686 45.1872 40.8314 45.1872 41.3944 45.4712L79.3944 64.6346C80.072 64.9763 80.5 65.6748 80.5 66.4388V83.7322C80.5 84.482 79.7177 84.9696 79.0528 84.6343L41.3944 65.6432C40.8314 65.3592 40.1686 65.3592 39.6056 65.6432L1.94721 84.6343C1.28231 84.9696 0.5 84.482 0.5 83.7322V66.4388Z" fill="#2C3039"/>
</svg>
