<svg width="81" height="101" viewBox="0 0 81 101" fill="none" xmlns="http://www.w3.org/2000/svg">
<path d="M0.5 21.1806C0.5 20.4166 0.928005 19.7181 1.60557 19.3764L39.6056 0.212961C40.1686 -0.0709878 40.8314 -0.0709867 41.3944 0.212962L79.3944 19.3764C80.072 19.7181 80.5 20.4166 80.5 21.1806V38.474C80.5 39.2238 79.7177 39.7114 79.0528 39.3761L41.3944 20.385C40.8314 20.101 40.1686 20.101 39.6056 20.385L1.94721 39.3761C1.28231 39.7114 0.5 39.2238 0.5 38.474V21.1806Z" fill="#2C3039"/>
<path d="M72.5 51.8592V60.474C72.5 78.1471 58.1731 92.474 40.5 92.474C22.8269 92.474 8.5 78.1471 8.5 60.474V51.8592L40.5 35.7216L72.5 51.8592Z" stroke="#2C3039" stroke-width="16"/>
</svg>
