<svg width="81" height="100" viewBox="0 0 81 100" fill="none" xmlns="http://www.w3.org/2000/svg">
<path d="M0.5 38.0533C0.5 37.38 0.928005 36.7644 1.60557 36.4633L39.6056 19.5754C40.1686 19.3251 40.8314 19.3251 41.3944 19.5754L79.3944 36.4633C80.072 36.7644 80.5 37.38 80.5 38.0533V49.7682C80.5 50.429 79.7177 50.8587 79.0528 50.5632L41.3944 33.8271C40.8314 33.5769 40.1686 33.5769 39.6056 33.8271L1.94721 50.5632C1.28231 50.8587 0.5 50.429 0.5 49.7682V38.0533Z" fill="#2C3039"/>
<path d="M0.5 18.6656C0.5 17.9923 0.928005 17.3767 1.60557 17.0756L39.6056 0.187674C40.1686 -0.0625587 40.8314 -0.0625576 41.3944 0.187675L79.3944 17.0756C80.072 17.3767 80.5 17.9923 80.5 18.6656V30.3805C80.5 31.0413 79.7177 31.471 79.0528 31.1755L41.3944 14.4394C40.8314 14.1892 40.1686 14.1892 39.6056 14.4394L1.94721 31.1755C1.28231 31.471 0.5 31.0413 0.5 30.3805V18.6656Z" fill="#2C3039"/>
<path d="M40.5 47.32L72.5 61.5415V64.7496C72.5 78.8793 59.1533 92 40.5 92C21.8467 92 8.5 78.8793 8.5 64.7496V61.5415L40.5 47.32Z" stroke="#2C3039" stroke-width="16"/>
</svg>
