<svg width="81" height="100" viewBox="0 0 81 100" fill="none" xmlns="http://www.w3.org/2000/svg">
<path d="M0.5 21.1806C0.5 20.4166 0.928005 19.7181 1.60557 19.3764L39.6056 0.212961C40.1686 -0.0709879 40.8314 -0.0709867 41.3944 0.212962L79.3944 19.3764C80.072 19.7181 80.5 20.4166 80.5 21.1806V38.474C80.5 39.2238 79.7177 39.7114 79.0528 39.3761L41.3944 20.385C40.8314 20.101 40.1686 20.101 39.6056 20.385L1.94721 39.3761C1.28231 39.7114 0.5 39.2238 0.5 38.474V21.1806Z" fill="#2C3039"/>
<path d="M0.5 51.4388C0.5 50.6748 0.928005 49.9763 1.60557 49.6346L39.6056 30.4712C40.1686 30.1872 40.8314 30.1872 41.3944 30.4712L79.3944 49.6346C80.072 49.9763 80.5 50.6748 80.5 51.4388V68.7322C80.5 69.482 79.7177 69.9696 79.0528 69.6343L41.3944 50.6432C40.8314 50.3592 40.1686 50.3592 39.6056 50.6432L1.94721 69.6343C1.28231 69.9696 0.5 69.482 0.5 68.7322V51.4388Z" fill="#2C3039"/>
<path d="M0.5 81.6967C0.5 80.9327 0.928005 80.2342 1.60557 79.8925L39.6056 60.729C40.1686 60.4451 40.8314 60.4451 41.3944 60.7291L79.3944 79.8925C80.072 80.2342 80.5 80.9327 80.5 81.6967V98.9901C80.5 99.7399 79.7177 100.228 79.0528 99.8922L41.3944 80.9011C40.8314 80.6171 40.1686 80.6171 39.6056 80.9011L1.94721 99.8922C1.28231 100.228 0.5 99.7399 0.5 98.9901V81.6967Z" fill="#2C3039"/>
</svg>
