<svg width="81" height="101" viewBox="0 0 81 101" fill="none" xmlns="http://www.w3.org/2000/svg">
<path d="M10.3052 56.9886C10.3052 56.4118 10.6283 55.8846 11.1397 55.6266L39.8248 41.1608C40.2498 40.9464 40.7501 40.9464 41.1751 41.1608L69.8602 55.6266C70.3717 55.8846 70.6948 56.4118 70.6948 56.9886V67.0234C70.6948 67.5894 70.1042 67.9575 69.6023 67.7044L41.1751 53.3685C40.7501 53.1542 40.2498 53.1542 39.8248 53.3685L11.3976 67.7044C10.8957 67.9575 10.3052 67.5894 10.3052 67.0234V56.9886Z" fill="#2C3039"/>
<path d="M10.3052 73.5957C10.3052 73.019 10.6283 72.4917 11.1397 72.2338L39.8248 57.7679C40.2498 57.5535 40.7501 57.5535 41.1751 57.7679L69.8602 72.2338C70.3717 72.4917 70.6948 73.019 70.6948 73.5957V83.6305C70.6948 84.1965 70.1042 84.5646 69.6023 84.3115L41.1751 69.9757C40.7501 69.7613 40.2498 69.7613 39.8248 69.9757L11.3976 84.3115C10.8957 84.5646 10.3052 84.1965 10.3052 83.6305V73.5957Z" fill="#2C3039"/>
<path d="M10.3052 90.2029C10.3052 89.6261 10.6283 89.0989 11.1397 88.8409L39.8248 74.375C40.2498 74.1607 40.7501 74.1607 41.1751 74.375L69.8602 88.8409C70.3717 89.0989 70.6948 89.6261 70.6948 90.2029V100.238C70.6948 100.804 70.1042 101.172 69.6023 100.919L41.1751 86.5828C40.7501 86.3685 40.2498 86.3685 39.8248 86.5828L11.3976 100.919C10.8957 101.172 10.3052 100.804 10.3052 100.238V90.2029Z" fill="#2C3039"/>
<path d="M38.5979 1.8541C39.1966 0.0114822 41.8034 0.0114799 42.4021 1.8541L45.4393 11.2016C45.7071 12.0257 46.475 12.5836 47.3414 12.5836H57.17C59.1074 12.5836 59.913 15.0628 58.3456 16.2016L50.3941 21.9787C49.6931 22.488 49.3998 23.3907 49.6675 24.2148L52.7047 33.5623C53.3034 35.4049 51.1945 36.9372 49.627 35.7984L41.6756 30.0213C40.9746 29.512 40.0254 29.512 39.3244 30.0213L31.373 35.7984C29.8055 36.9372 27.6966 35.4049 28.2953 33.5623L31.3325 24.2148C31.6002 23.3907 31.3069 22.488 30.6059 21.9787L22.6544 16.2016C21.087 15.0628 21.8926 12.5836 23.83 12.5836H33.6586C34.525 12.5836 35.2929 12.0257 35.5607 11.2016L38.5979 1.8541Z" fill="#2C3039"/>
</svg>
