<svg width="81" height="100" viewBox="0 0 81 100" fill="none" xmlns="http://www.w3.org/2000/svg">
<path d="M10 71.9886C10 71.4119 10.3231 70.8846 10.8346 70.6267L39.5196 56.1608C39.9447 55.9464 40.4449 55.9464 40.87 56.1608L69.555 70.6267C70.0665 70.8846 70.3896 71.4119 70.3896 71.9886V88.0234C70.3896 88.5894 69.799 88.9575 69.2971 88.7044L40.87 74.3685C40.4449 74.1542 39.9446 74.1542 39.5196 74.3685L11.0925 88.7044C10.5905 88.9575 10 88.5894 10 88.0234V71.9886Z" fill="#2C3039"/>
<path d="M38.2927 16.8541C38.8914 15.0115 41.4982 15.0115 42.0969 16.8541L45.1341 26.2016C45.4019 27.0257 46.1698 27.5836 47.0362 27.5836H56.8648C58.8023 27.5836 59.6078 30.0628 58.0404 31.2016L50.0889 36.9787C49.3879 37.488 49.0946 38.3907 49.3624 39.2148L52.3996 48.5623C52.9983 50.4049 50.8893 51.9372 49.3219 50.7984L41.3704 45.0213C40.6694 44.512 39.7202 44.512 39.0193 45.0213L31.0678 50.7984C29.5004 51.9372 27.3914 50.4049 27.9901 48.5623L31.0273 39.2148C31.295 38.3907 31.0017 37.488 30.3007 36.9787L22.3493 31.2016C20.7818 30.0628 21.5874 27.5836 23.5248 27.5836H33.3534C34.2199 27.5836 34.9878 27.0257 35.2555 26.2016L38.2927 16.8541Z" fill="#2C3039"/>
</svg>
