<svg width="34" height="39" viewBox="0 0 34 39" fill="none" xmlns="http://www.w3.org/2000/svg">
<path d="M4.19213 11.4262L5.0693 12.7715L5.13967 12.7256L5.20487 12.6726L4.19213 11.4262ZM27.885 12.9819C27.2772 13.6278 27.308 14.6442 27.9539 15.2521C28.5998 15.86 29.6162 15.8291 30.2241 15.1832L27.885 12.9819ZM15.1223 2.54544L16.135 3.79189L15.1223 2.54544ZM29.5271 7.99472L19.9518 1.12394L18.0792 3.73364L27.6545 10.6044L29.5271 7.99472ZM14.1095 1.29899L3.17939 10.1797L5.20487 12.6726L16.135 3.79189L14.1095 1.29899ZM3.31496 10.0809C2.56111 10.5724 1.76701 11.2737 1.19553 12.1597C0.6155 13.059 0.222729 14.2247 0.467802 15.5317C0.711659 16.8323 1.53581 17.9987 2.83816 19.0104C4.13213 20.0155 5.98334 20.939 8.4989 21.7728L9.50952 18.7239C7.18598 17.9537 5.70862 17.1729 4.8086 16.4737C3.91696 15.7811 3.68172 15.2433 3.62482 14.9398C3.56913 14.6428 3.63425 14.3047 3.89481 13.9007C4.16392 13.4835 4.59311 13.082 5.0693 12.7715L3.31496 10.0809ZM19.9518 1.12394C18.1878 -0.141875 15.7947 -0.0701708 14.1095 1.29899L16.135 3.79189C16.6958 3.33626 17.4922 3.31239 18.0792 3.73364L19.9518 1.12394ZM27.6545 10.6044C28.4346 11.1641 28.543 12.2828 27.885 12.9819L30.2241 15.1832C32.2135 13.0694 31.8856 9.68703 29.5271 7.99472L27.6545 10.6044Z" fill="#2C3039"/>
<path d="M29.8075 27.4664L28.9304 26.121L28.8601 26.1668L28.7949 26.2198L29.8075 27.4664ZM6.10959 25.9107C6.71747 25.2648 6.68665 24.2484 6.04074 23.6405C5.39483 23.0326 4.37843 23.0634 3.77054 23.7093L6.10959 25.9107ZM14.9817 36.4642L14.0456 37.7691L14.9817 36.4642ZM4.46777 30.8977L14.0456 37.7691L15.9179 35.1593L6.34015 28.2878L4.46777 30.8977ZM19.8872 37.5941L30.8201 28.7129L28.7949 26.2198L17.8619 35.101L19.8872 37.5941ZM30.6845 28.8117C31.4385 28.3202 32.2327 27.619 32.8043 26.7329C33.3845 25.8336 33.7774 24.6679 33.5322 23.3608C33.2883 22.0601 32.464 20.8937 31.1614 19.8821C29.8672 18.877 28.0157 17.9535 25.4996 17.1197L24.4892 20.1687C26.8133 20.9389 28.291 21.7197 29.1912 22.4189C30.0831 23.1116 30.3183 23.6494 30.3752 23.9528C30.4309 24.2497 30.3658 24.5877 30.1052 24.9917C29.836 25.4089 29.4067 25.8105 28.9304 26.121L30.6845 28.8117ZM14.0456 37.7691C15.8095 39.0346 18.2022 38.9629 19.8872 37.5941L17.8619 35.101C17.3012 35.5565 16.5049 35.5804 15.9179 35.1593L14.0456 37.7691ZM6.34015 28.2878C5.56018 27.7282 5.45169 26.6097 6.10959 25.9107L3.77054 23.7093C1.78111 25.8232 2.10917 29.2055 4.46777 30.8977L6.34015 28.2878Z" fill="#2C3039"/>
<path d="M16.9701 9.54939L19.6714 15.2257L21.1216 14.5356L19.6714 15.2257C19.9883 15.8916 20.5247 16.428 21.1906 16.7449L26.8669 19.4462L21.1906 22.1475L21.8807 23.5977L21.1906 22.1475C20.5247 22.4643 19.9883 23.0008 19.6714 23.6667L21.1216 24.3568L19.6714 23.6667L16.9701 29.343L14.2688 23.6667C13.952 23.0008 13.4155 22.4643 12.7497 22.1475L12.0595 23.5977L12.7497 22.1475L7.07332 19.4462L12.7497 16.7449C13.4155 16.428 13.952 15.8916 14.2688 15.2257L16.9701 9.54939Z" stroke="#2C3039" stroke-width="3.21203"/>
</svg>
