<svg width="141" height="204" viewBox="0 0 141 204" fill="none" xmlns="http://www.w3.org/2000/svg">
<path d="M28.8399 36.9132L31.6931 41.289L31.922 41.1398L32.1341 40.9675L28.8399 36.9132ZM105.906 41.9733C103.928 44.0743 104.029 47.3803 106.13 49.3576C108.231 51.3349 111.537 51.2346 113.514 49.1337L105.906 41.9733ZM108.201 29.9959L111.247 25.7516L108.201 29.9959ZM111.247 25.7516L80.1014 3.40312L74.0104 11.8917L105.156 34.2402L111.247 25.7516ZM61.0982 3.9725L25.5458 32.8588L32.1341 40.9675L67.6865 12.0811L61.0982 3.9725ZM25.9868 32.5373C23.5347 34.1361 20.9518 36.4171 19.0929 39.2991C17.2063 42.2243 15.9287 46.0158 16.7258 50.2672C17.519 54.4975 20.1997 58.2915 24.4359 61.5822C28.6448 64.8516 34.6662 67.8553 42.8485 70.5675L46.1358 60.6504C38.578 58.1452 33.7726 55.6053 30.8451 53.3313C27.9449 51.0784 27.1797 49.3289 26.9946 48.3418C26.8135 47.3759 27.0253 46.276 27.8728 44.962C28.7482 43.6049 30.1442 42.299 31.6931 41.289L25.9868 32.5373ZM80.1014 3.40312C74.3634 -0.714191 66.5794 -0.480969 61.0982 3.9725L67.6865 12.0811C69.5105 10.5991 72.1009 10.5215 74.0104 11.8917L80.1014 3.40312ZM105.156 34.2402C107.693 36.0607 108.046 39.6993 105.906 41.9733L113.514 49.1337C119.985 42.2579 118.918 31.2562 111.247 25.7516L105.156 34.2402Z" fill="white"/>
<path d="M112.159 89.0868L109.306 84.7107L109.077 84.8599L108.865 85.0322L112.159 89.0868ZM35.0768 84.0267C37.054 81.9257 36.9538 78.6197 34.8528 76.6424C32.7519 74.6651 29.4458 74.7654 27.4686 76.8663L35.0768 84.0267ZM63.9351 118.354L60.89 122.598L63.9351 118.354ZM76.5973 117.975L73.3035 113.92L76.5973 117.975ZM29.7364 100.248L60.89 122.598L66.9803 114.109L35.8267 91.7589L29.7364 100.248ZM79.891 122.029L115.452 93.1415L108.865 85.0322L73.3035 113.92L79.891 122.029ZM115.011 93.463C117.464 91.8643 120.047 89.5833 121.906 86.7013C123.794 83.7761 125.071 79.9844 124.274 75.7326C123.481 71.502 120.799 67.708 116.563 64.4175C112.353 61.1482 106.33 58.1446 98.1466 55.4324L94.86 65.3497C102.419 67.855 107.226 70.3949 110.154 72.669C113.055 74.922 113.82 76.6716 114.005 77.6584C114.186 78.624 113.975 79.7236 113.127 81.0376C112.252 82.3947 110.855 83.7007 109.306 84.7107L115.011 93.463ZM60.89 122.598C66.6275 126.715 74.4102 126.482 79.891 122.029L73.3035 113.92C71.4796 115.402 68.8896 115.479 66.9803 114.109L60.89 122.598ZM35.8267 91.7589C33.2897 89.9387 32.9368 86.3005 35.0768 84.0267L27.4686 76.8663C20.9976 83.7421 22.0646 94.7439 29.7364 100.248L35.8267 91.7589Z" fill="white"/>
<path d="M70.4028 30.8085L79.1892 49.2719L83.9062 47.0272L79.1892 49.2719C80.2199 51.4377 81.9648 53.1826 84.1307 54.2133L102.594 62.9998L84.1307 71.7862C81.9648 72.8169 80.2199 74.5618 79.1892 76.7276L70.4028 95.191L61.6163 76.7276C60.5857 74.5618 58.8407 72.8169 56.6749 71.7862L54.4302 76.5032L56.6749 71.7862L38.2116 62.9998L56.6749 54.2133C58.8407 53.1826 60.5857 51.4377 61.6163 49.2719L56.8994 47.0272L61.6163 49.2719L70.4028 30.8085Z" stroke="white" stroke-width="10.4477"/>
<path d="M0.992206 166.648H6.35363C6.44995 168.928 8.08727 170.212 10.9446 170.212C13.4808 170.212 14.9255 169.088 14.9255 167.387C14.9255 166.616 14.5723 166.006 14.1871 165.717C14.0266 165.557 13.7697 165.396 13.4166 165.268C12.7745 164.979 12.614 164.979 12.004 164.85L8.312 164.08C7.63781 163.951 7.12414 163.823 6.73888 163.727C6.35363 163.63 5.77575 163.406 5.00525 163.085C4.26685 162.731 3.65687 162.346 3.20741 161.929C2.30848 161.062 1.44167 159.457 1.44167 157.53C1.44167 155.347 2.27638 153.614 3.9137 152.297C5.58313 150.981 7.79833 150.307 10.5272 150.307C13.2561 150.307 15.4713 150.949 17.1086 152.201C18.7459 153.453 19.6127 155.155 19.6448 157.242H14.2834C14.1229 155.347 12.6461 154.352 10.3346 154.352C8.11937 154.352 6.89941 155.251 6.89941 156.76C6.89941 157.884 7.70201 158.654 9.33934 159.071C9.46775 159.104 9.66038 159.168 9.94932 159.2C10.0456 159.232 10.1419 159.232 10.174 159.264L13.9624 160.003C18.2643 160.869 20.4153 163.117 20.4153 166.777C20.4153 169.152 19.5485 171.014 17.8149 172.331C16.0812 173.647 13.7376 174.321 10.8161 174.321C7.79833 174.321 5.42261 173.615 3.65687 172.234C1.89113 170.822 1.02431 168.96 0.992206 166.648ZM26.1329 165.043L17.4326 150.596H23.5967L26.1008 155.444L28.605 160.42H28.8618L33.9343 150.596H40.0662L31.3338 165.043V174H26.1329V165.043ZM44.232 174H39.0311V150.596H45.0346L54.4733 166.744H54.6659L54.377 160.035V150.596H59.5137V174H53.5102L44.1357 157.98H43.911L44.232 164.433V174ZM60.5087 162.282C60.5087 158.558 61.536 155.636 63.5907 153.517C65.6453 151.366 68.4063 150.307 71.8736 150.307C75.4372 150.307 78.2303 151.399 80.2528 153.582C82.2754 155.765 83.2706 158.654 83.2706 162.282C83.2706 166.038 82.2433 168.992 80.1565 171.143C78.1018 173.262 75.3409 174.321 71.8736 174.321C68.31 174.321 65.549 173.229 63.5265 171.046C61.5039 168.863 60.5087 165.942 60.5087 162.282ZM65.9985 162.282C65.9985 167.001 68.2779 169.762 71.8736 169.762C75.6298 169.762 77.8129 166.809 77.8129 162.282C77.8129 157.691 75.5014 154.834 71.8736 154.834C68.1816 154.834 65.9985 157.787 65.9985 162.282ZM84.2769 150.596H94.6466C97.2471 150.596 99.3017 151.334 100.843 152.779C102.416 154.224 103.186 156.15 103.186 158.558C103.186 160.966 102.416 162.892 100.843 164.369C99.2696 165.813 97.215 166.552 94.6466 166.552H89.4778V174H84.2769V150.596ZM89.4778 162.121H93.9403C96.4445 162.121 97.6965 160.966 97.6965 158.622C97.6965 156.343 96.4445 155.219 93.9403 155.219H89.4778V162.121ZM102.303 166.648H107.664C107.76 168.928 109.398 170.212 112.255 170.212C114.791 170.212 116.236 169.088 116.236 167.387C116.236 166.616 115.883 166.006 115.498 165.717C115.337 165.557 115.08 165.396 114.727 165.268C114.085 164.979 113.925 164.979 113.315 164.85L109.623 164.08C108.948 163.951 108.435 163.823 108.049 163.727C107.664 163.63 107.086 163.406 106.316 163.085C105.577 162.731 104.967 162.346 104.518 161.929C103.619 161.062 102.752 159.457 102.752 157.53C102.752 155.347 103.587 153.614 105.224 152.297C106.894 150.981 109.109 150.307 111.838 150.307C114.567 150.307 116.782 150.949 118.419 152.201C120.056 153.453 120.923 155.155 120.955 157.242H115.594C115.433 155.347 113.957 154.352 111.645 154.352C109.43 154.352 108.21 155.251 108.21 156.76C108.21 157.884 109.013 158.654 110.65 159.071C110.778 159.104 110.971 159.168 111.26 159.2C111.356 159.232 111.452 159.232 111.485 159.264L115.273 160.003C119.575 160.869 121.726 163.117 121.726 166.777C121.726 169.152 120.859 171.014 119.125 172.331C117.392 173.647 115.048 174.321 112.127 174.321C109.109 174.321 106.733 173.615 104.967 172.234C103.202 170.822 102.335 168.96 102.303 166.648ZM139.442 174H122.876V150.596H139.442V155.058H128.077V159.778H137.805V163.983H128.077V169.537H139.442V174Z" fill="white"/>
<path d="M30.7586 195.24H31.8306C31.6546 196.44 31.1266 197.384 30.2306 198.104C29.3346 198.808 28.2146 199.16 26.8706 199.16C25.2706 199.16 23.9746 198.616 22.9826 197.512C22.0066 196.408 21.5106 194.952 21.5106 193.16C21.5106 191.384 22.0066 189.96 22.9826 188.856C23.9746 187.752 25.2706 187.192 26.8706 187.192C28.1826 187.192 29.2866 187.544 30.1826 188.248C31.0786 188.936 31.6226 189.88 31.8306 191.064H30.7586C30.3586 189.272 28.8546 188.168 26.8706 188.168C25.5746 188.168 24.5506 188.632 23.7666 189.544C22.9986 190.456 22.6146 191.656 22.6146 193.16C22.6146 194.68 22.9986 195.896 23.7666 196.808C24.5506 197.72 25.5746 198.184 26.8706 198.184C28.9986 198.184 30.3746 197.08 30.7586 195.24ZM39.8306 190.728H40.8386V199H40.0066L39.8466 197.464H39.7346C39.2866 198.472 38.1666 199.16 36.8706 199.16C35.2066 199.16 34.1346 198.04 34.1346 196.04V190.728H35.1426V195.928C35.1426 197.448 35.7986 198.216 37.1266 198.216C38.7746 198.216 39.8306 196.952 39.8306 195.048V190.728ZM44.7862 199H43.7782V190.728H44.6742L44.8022 192.44H44.8822C45.3782 191.224 46.3862 190.616 47.6182 190.616V191.544C45.7302 191.608 44.7862 192.776 44.7862 195.064V199ZM48.5734 196.728C48.5734 195 49.8214 194.088 51.8694 194.088H54.1894V193.416C54.1894 192.072 53.4694 191.4 52.0454 191.4C50.7654 191.4 49.9494 192.056 49.8854 193.032H48.9254C48.9734 192.296 49.2934 191.704 49.8854 191.256C50.4774 190.792 51.2134 190.568 52.0934 190.568C54.0934 190.568 55.1814 191.672 55.1814 193.528V197.512C55.1654 197.896 55.1974 198.136 55.7414 198.2C55.8534 198.2 55.9654 198.184 56.0454 198.168V199C55.9014 199.048 55.7254 199.08 55.5174 199.08C54.6694 199.08 54.2374 198.584 54.2534 197.592H54.1574C53.7734 198.536 52.6374 199.16 51.3414 199.16C49.6934 199.16 48.5734 198.184 48.5734 196.728ZM49.6134 196.632C49.6134 197.672 50.3014 198.264 51.4374 198.264C52.2534 198.264 52.9254 198.008 53.4214 197.48C53.9334 196.952 54.1894 196.264 54.1894 195.432V194.936H51.8854C50.3654 194.936 49.6134 195.544 49.6134 196.632ZM56.8572 191.592V190.728H58.3132V188.056L59.3212 187.672V190.728H61.1932V191.592H59.3212V196.824C59.3212 197.192 59.3372 197.368 59.4652 197.704C59.6092 198.024 59.9772 198.2 60.5372 198.2C60.8252 198.2 61.0492 198.168 61.1932 198.104V199C60.9532 199.08 60.6812 199.112 60.3452 199.112C58.9852 199.112 58.3132 198.376 58.3132 196.888V191.592H56.8572ZM66.2881 199.16C65.1521 199.16 64.2241 198.776 63.5201 197.992C62.8161 197.208 62.4641 196.184 62.4641 194.888C62.4641 193.576 62.8161 192.536 63.5041 191.752C64.2081 190.968 65.1361 190.568 66.2881 190.568C68.5441 190.568 69.8721 192.024 69.8721 194.28C69.8721 194.568 69.8561 194.824 69.8241 195.064H63.5041C63.4881 197.096 64.5921 198.28 66.3361 198.28C67.6961 198.28 68.6561 197.576 68.8961 196.552H69.9201C69.6481 198.104 68.2241 199.16 66.2881 199.16ZM63.5041 194.232H68.8641C68.8641 192.44 67.9361 191.448 66.2881 191.448C64.6721 191.448 63.5681 192.552 63.5041 194.232ZM79.2828 187.336V199H78.3388L78.2748 197.56H78.1948C77.7628 198.52 76.6428 199.16 75.2828 199.16C74.1948 199.16 73.3148 198.776 72.6588 198.008C72.0028 197.24 71.6828 196.216 71.6828 194.936C71.6828 193.624 72.0188 192.568 72.6748 191.768C73.3468 190.968 74.2268 190.568 75.3148 190.568C76.6748 190.568 77.7468 191.288 78.1948 192.36H78.2748V187.336H79.2828ZM78.2748 195.528V194.296C78.2748 193.48 78.0028 192.824 77.4588 192.312C76.9308 191.784 76.2588 191.528 75.4588 191.528C73.7148 191.528 72.7228 192.84 72.7228 194.952C72.7228 197.048 73.7628 198.216 75.4268 198.216C76.2428 198.216 76.9148 197.96 77.4588 197.448C78.0028 196.92 78.2748 196.28 78.2748 195.528ZM87.1601 199H86.2001V187.336H87.2081V192.344H87.3041C87.7361 191.272 88.9041 190.568 90.2481 190.568C91.2881 190.568 92.1361 190.968 92.7921 191.768C93.4641 192.552 93.8001 193.592 93.8001 194.872C93.8001 196.136 93.4641 197.176 92.7921 197.976C92.1201 198.76 91.2401 199.16 90.1361 199.16C88.8081 199.16 87.7041 198.536 87.3041 197.56H87.2081L87.1601 199ZM87.2081 194.296V195.528C87.2081 196.296 87.4801 196.936 88.0241 197.448C88.5681 197.96 89.2241 198.216 90.0081 198.216C90.7921 198.216 91.4321 197.944 91.9601 197.4C92.4881 196.84 92.7601 196.008 92.7601 194.872C92.7601 192.616 91.5761 191.528 90.0241 191.528C89.2241 191.528 88.5521 191.784 88.0081 192.312C87.4801 192.824 87.2081 193.48 87.2081 194.296ZM97.8016 198.888L94.6336 190.728H95.7536L97.3536 195.048L98.2496 197.672H98.3456L99.1936 195.048L100.65 190.728H101.754L98.7776 199.112C98.5856 199.64 98.5216 199.864 98.1856 200.44C98.0096 200.744 97.8336 200.968 97.6416 201.144C97.2576 201.512 96.6016 201.832 95.8336 201.832C95.6256 201.832 95.4336 201.816 95.2256 201.768V200.856C95.4176 200.888 95.5936 200.904 95.7536 200.904C96.6016 200.904 97.2096 200.408 97.5936 199.4L97.8016 198.888ZM115.905 199H114.785L113.633 195.992H107.985L106.833 199H105.729L110.225 187.336H111.409L115.905 199ZM109.185 192.84L108.337 195.08H113.281L112.433 192.84L110.849 188.36H110.785L109.185 192.84ZM118.511 187.336V199H117.471V187.336H118.511Z" fill="white" fill-opacity="0.6"/>
</svg>
