<svg width="40" height="40" viewBox="0 0 40 40" fill="none" xmlns="http://www.w3.org/2000/svg">
<path d="M31.1841 12.0169C31.0291 11.8607 30.8448 11.7367 30.6417 11.6521C30.4386 11.5675 30.2207 11.5239 30.0007 11.5239C29.7807 11.5239 29.5629 11.5675 29.3598 11.6521C29.1567 11.7367 28.9723 11.8607 28.8174 12.0169L16.4007 24.4503L11.1841 19.2169C11.0232 19.0615 10.8333 18.9393 10.6252 18.8573C10.4171 18.7753 10.1949 18.7351 9.97126 18.739C9.74762 18.7428 9.52694 18.7907 9.32181 18.8799C9.11668 18.969 8.93112 19.0977 8.77572 19.2586C8.62032 19.4195 8.49813 19.6094 8.41613 19.8175C8.33412 20.0255 8.2939 20.2478 8.29777 20.4714C8.30164 20.695 8.34952 20.9157 8.43868 21.1208C8.52783 21.326 8.65652 21.5115 8.81739 21.6669L15.2174 28.0669C15.3723 28.2231 15.5567 28.3471 15.7598 28.4317C15.9629 28.5164 16.1807 28.5599 16.4007 28.5599C16.6207 28.5599 16.8386 28.5164 17.0417 28.4317C17.2448 28.3471 17.4291 28.2231 17.5841 28.0669L31.1841 14.4669C31.3532 14.3109 31.4882 14.1214 31.5806 13.9106C31.6729 13.6998 31.7206 13.4721 31.7206 13.2419C31.7206 13.0118 31.6729 12.7841 31.5806 12.5732C31.4882 12.3624 31.3532 12.173 31.1841 12.0169Z" fill="white"/>
</svg>
